<svg width="129" height="41" viewBox="0 0 129 41" fill="none" xmlns="http://www.w3.org/2000/svg">
<path d="M80.6667 21H87.6667L64.3333 0L41 21H48L64.3333 6.27667L80.6667 21Z" fill="white"/>
<path d="M52.6667 4.22333V0H45.6667V10.5L52.6667 4.22333Z" fill="#BC6C25"/>
<path d="M10.98 40.27L8.82 30.478L6.192 38.38L6.516 39.694L4.32 40.27L0 25.96L2.97 25.6L5.31 35.68L7.38 26.032L10.17 26.392L9.81 27.472L12.204 35.608L14.292 25.6L17.19 25.96L13.158 38.488L13.536 39.694L10.98 40.27ZM23.6074 40.198C22.5634 40.198 21.6574 39.988 20.8894 39.568C20.1334 39.136 19.5454 38.53 19.1254 37.75C18.7054 36.97 18.4954 36.058 18.4954 35.014C18.4954 33.958 18.7054 33.04 19.1254 32.26C19.5454 31.48 20.1334 30.874 20.8894 30.442C21.6574 30.01 22.5634 29.794 23.6074 29.794C24.6634 29.794 25.5694 30.01 26.3254 30.442C27.0934 30.874 27.6814 31.48 28.0894 32.26C28.4974 33.04 28.7014 33.958 28.7014 35.014C28.7014 36.058 28.4974 36.97 28.0894 37.75C27.6814 38.53 27.0934 39.136 26.3254 39.568C25.5694 39.988 24.6634 40.198 23.6074 40.198ZM23.8954 38.542C24.6514 38.482 25.2394 38.164 25.6594 37.588C26.0794 37 26.2894 36.25 26.2894 35.338C26.2894 35.242 26.2894 35.152 26.2894 35.068C26.2894 34.972 26.2834 34.876 26.2714 34.78C26.1874 33.748 25.8994 32.938 25.4074 32.35C24.9274 31.762 24.3154 31.468 23.5714 31.468C23.5234 31.468 23.4814 31.474 23.4454 31.486C23.4094 31.486 23.3674 31.486 23.3194 31.486C22.5874 31.534 21.9994 31.852 21.5554 32.44C21.1234 33.028 20.9074 33.784 20.9074 34.708C20.9074 34.792 20.9074 34.882 20.9074 34.978C20.9074 35.062 20.9134 35.152 20.9254 35.248C21.0094 36.268 21.3034 37.078 21.8074 37.678C22.3114 38.266 22.9294 38.56 23.6614 38.56C23.6974 38.56 23.7334 38.56 23.7694 38.56C23.8174 38.548 23.8594 38.542 23.8954 38.542ZM36.1969 40.198C35.1529 40.198 34.2469 39.988 33.4789 39.568C32.7229 39.136 32.1349 38.53 31.7149 37.75C31.2949 36.97 31.0849 36.058 31.0849 35.014C31.0849 33.958 31.2949 33.04 31.7149 32.26C32.1349 31.48 32.7229 30.874 33.4789 30.442C34.2469 30.01 35.1529 29.794 36.1969 29.794C37.2529 29.794 38.1589 30.01 38.9149 30.442C39.6829 30.874 40.2709 31.48 40.6789 32.26C41.0869 33.04 41.2909 33.958 41.2909 35.014C41.2909 36.058 41.0869 36.97 40.6789 37.75C40.2709 38.53 39.6829 39.136 38.9149 39.568C38.1589 39.988 37.2529 40.198 36.1969 40.198ZM36.4849 38.542C37.2409 38.482 37.8289 38.164 38.2489 37.588C38.6689 37 38.8789 36.25 38.8789 35.338C38.8789 35.242 38.8789 35.152 38.8789 35.068C38.8789 34.972 38.8729 34.876 38.8609 34.78C38.7769 33.748 38.4889 32.938 37.9969 32.35C37.5169 31.762 36.9049 31.468 36.1609 31.468C36.1129 31.468 36.0709 31.474 36.0349 31.486C35.9989 31.486 35.9569 31.486 35.9089 31.486C35.1769 31.534 34.5889 31.852 34.1449 32.44C33.7129 33.028 33.4969 33.784 33.4969 34.708C33.4969 34.792 33.4969 34.882 33.4969 34.978C33.4969 35.062 33.5029 35.152 33.5149 35.248C33.5989 36.268 33.8929 37.078 34.3969 37.678C34.9009 38.266 35.5189 38.56 36.2509 38.56C36.2869 38.56 36.3229 38.56 36.3589 38.56C36.4069 38.548 36.4489 38.542 36.4849 38.542ZM52.4403 40.18C52.1403 39.94 51.9063 39.712 51.7383 39.496C51.5823 39.268 51.4503 38.998 51.3423 38.686C50.9703 39.25 50.5083 39.646 49.9563 39.874C49.4163 40.09 48.8523 40.198 48.2643 40.198C47.3763 40.198 46.5843 40.006 45.8883 39.622C45.2043 39.226 44.6643 38.644 44.2683 37.876C43.8723 37.096 43.6743 36.142 43.6743 35.014C43.6743 33.874 43.8843 32.92 44.3043 32.152C44.7243 31.372 45.2763 30.784 45.9603 30.388C46.6563 29.992 47.4123 29.794 48.2283 29.794C48.8643 29.794 49.3983 29.878 49.8303 30.046C50.2623 30.214 50.6283 30.508 50.9283 30.928V25.6L53.4843 25.96L53.1243 37.048C53.1123 37.516 53.1963 37.978 53.3763 38.434C53.5683 38.89 53.8323 39.286 54.1683 39.622L52.4403 40.18ZM51.0003 32.998C50.8083 32.614 50.5263 32.278 50.1543 31.99C49.7823 31.69 49.3323 31.54 48.8043 31.54C48.3483 31.54 47.9043 31.654 47.4723 31.882C47.0403 32.098 46.6803 32.464 46.3923 32.98C46.1163 33.484 45.9783 34.168 45.9783 35.032C45.9783 35.884 46.1103 36.562 46.3743 37.066C46.6503 37.558 47.0043 37.912 47.4363 38.128C47.8803 38.344 48.3423 38.452 48.8223 38.452C49.2303 38.452 49.5963 38.35 49.9203 38.146C50.2443 37.93 50.5023 37.642 50.6943 37.282C50.8983 36.922 51.0003 36.532 51.0003 36.112V32.998ZM65.6748 38.236C65.3268 38.704 64.9548 39.082 64.5588 39.37C64.1748 39.658 63.7308 39.868 63.2268 40C62.7228 40.132 62.1048 40.198 61.3728 40.198C60.3288 40.198 59.4348 39.97 58.6908 39.514C57.9468 39.046 57.3768 38.422 56.9808 37.642C56.5848 36.85 56.3868 35.968 56.3868 34.996C56.3868 34.012 56.5908 33.13 56.9988 32.35C57.4068 31.558 57.9768 30.934 58.7088 30.478C59.4528 30.022 60.3168 29.794 61.3008 29.794C62.2608 29.794 63.0828 30.016 63.7668 30.46C64.4628 30.892 64.9968 31.516 65.3688 32.332C65.7408 33.136 65.9268 34.096 65.9268 35.212V35.518H59.4108L59.0148 34.114L63.4428 33.754C63.4068 33.118 63.2268 32.602 62.9028 32.206C62.5908 31.798 62.0868 31.594 61.3908 31.594C60.5868 31.594 59.9208 31.894 59.3928 32.494C58.8768 33.082 58.6188 33.922 58.6188 35.014C58.6188 35.794 58.7628 36.442 59.0508 36.958C59.3508 37.462 59.7228 37.84 60.1668 38.092C60.6228 38.332 61.0788 38.452 61.5348 38.452C62.3028 38.452 62.9868 38.326 63.5868 38.074C64.1988 37.81 64.6788 37.456 65.0268 37.012L65.6748 38.236ZM75.5803 40.234V33.52C75.5803 32.92 75.3943 32.464 75.0223 32.152C74.6623 31.828 74.2243 31.666 73.7083 31.666C73.1923 31.666 72.7183 31.804 72.2863 32.08C71.8663 32.356 71.5723 32.758 71.4043 33.286V40L69.2083 40.234L68.8483 29.704L71.4043 30.01V31.18C71.6443 30.724 71.9983 30.382 72.4663 30.154C72.9463 29.914 73.6003 29.794 74.4283 29.794C75.1603 29.794 75.8023 29.95 76.3543 30.262C76.9183 30.574 77.3503 31 77.6503 31.54C77.9623 32.068 78.1003 32.668 78.0643 33.34L77.7043 40L75.5803 40.234ZM81.8505 40V25.6L84.6405 25.96L84.1005 38.038L90.8685 37.498V40H81.8505ZM100.968 40.18C100.668 39.94 100.434 39.712 100.266 39.496C100.11 39.268 99.9782 38.998 99.8702 38.686C99.6542 39.058 99.3482 39.358 98.9522 39.586C98.5562 39.802 98.1122 39.958 97.6202 40.054C97.1402 40.15 96.6482 40.198 96.1442 40.198C95.1242 40.198 94.3562 39.964 93.8402 39.496C93.3242 39.028 93.0542 38.374 93.0302 37.534V37.462C93.0302 36.502 93.3362 35.746 93.9482 35.194C94.5602 34.642 95.4122 34.246 96.5042 34.006C97.2482 33.838 97.8722 33.658 98.3762 33.466C98.8922 33.262 99.1502 33.034 99.1502 32.782C99.1502 31.978 98.5202 31.576 97.2602 31.576C96.6242 31.576 96.0062 31.702 95.4062 31.954C94.8062 32.194 94.3142 32.482 93.9302 32.818L93.2102 31.522C93.6302 30.97 94.2062 30.544 94.9382 30.244C95.6822 29.944 96.5222 29.794 97.4582 29.794C98.8502 29.794 99.8942 30.052 100.59 30.568C101.298 31.072 101.652 31.87 101.652 32.962V37.048C101.652 37.516 101.742 37.978 101.922 38.434C102.102 38.89 102.36 39.286 102.696 39.622L100.968 40.18ZM95.5142 37.282C95.5262 37.606 95.6222 37.882 95.8022 38.11C95.9822 38.338 96.2522 38.452 96.6122 38.452C97.1402 38.452 97.6562 38.302 98.1602 38.002C98.6642 37.702 99.0122 37.324 99.2042 36.868C99.2642 36.736 99.3002 36.574 99.3122 36.382C99.3362 36.178 99.3482 35.968 99.3482 35.752C99.3482 35.44 99.3362 35.158 99.3122 34.906C99.2882 34.654 99.2762 34.528 99.2762 34.528C99.0122 34.732 98.6702 34.906 98.2502 35.05C97.8422 35.194 97.4102 35.332 96.9542 35.464C96.5102 35.584 96.1562 35.782 95.8922 36.058C95.6402 36.334 95.5142 36.7 95.5142 37.156V37.282ZM112.03 40.234V33.52C112.03 32.92 111.844 32.464 111.472 32.152C111.112 31.828 110.674 31.666 110.158 31.666C109.642 31.666 109.168 31.804 108.736 32.08C108.316 32.356 108.022 32.758 107.854 33.286V40L105.658 40.234L105.298 29.704L107.854 30.01V31.18C108.094 30.724 108.448 30.382 108.916 30.154C109.396 29.914 110.05 29.794 110.878 29.794C111.61 29.794 112.252 29.95 112.804 30.262C113.368 30.574 113.8 31 114.1 31.54C114.412 32.068 114.55 32.668 114.514 33.34L114.154 40L112.03 40.234ZM126.166 40.18C125.866 39.94 125.632 39.712 125.464 39.496C125.308 39.268 125.176 38.998 125.068 38.686C124.696 39.25 124.234 39.646 123.682 39.874C123.142 40.09 122.578 40.198 121.99 40.198C121.102 40.198 120.31 40.006 119.614 39.622C118.93 39.226 118.39 38.644 117.994 37.876C117.598 37.096 117.4 36.142 117.4 35.014C117.4 33.874 117.61 32.92 118.03 32.152C118.45 31.372 119.002 30.784 119.686 30.388C120.382 29.992 121.138 29.794 121.954 29.794C122.59 29.794 123.124 29.878 123.556 30.046C123.988 30.214 124.354 30.508 124.654 30.928V25.6L127.21 25.96L126.85 37.048C126.838 37.516 126.922 37.978 127.102 38.434C127.294 38.89 127.558 39.286 127.894 39.622L126.166 40.18ZM124.726 32.998C124.534 32.614 124.252 32.278 123.88 31.99C123.508 31.69 123.058 31.54 122.53 31.54C122.074 31.54 121.63 31.654 121.198 31.882C120.766 32.098 120.406 32.464 120.118 32.98C119.842 33.484 119.704 34.168 119.704 35.032C119.704 35.884 119.836 36.562 120.1 37.066C120.376 37.558 120.73 37.912 121.162 38.128C121.606 38.344 122.068 38.452 122.548 38.452C122.956 38.452 123.322 38.35 123.646 38.146C123.97 37.93 124.228 37.642 124.42 37.282C124.624 36.922 124.726 36.532 124.726 36.112V32.998Z" fill="white"/>
</svg>
